<svg width="37" height="37" viewBox="0 0 37 37" fill="none" xmlns="http://www.w3.org/2000/svg">
<path d="M24.2967 21.9811H23.0772L22.6449 21.5643C24.1578 19.8045 25.0686 17.5197 25.0686 15.0343C25.0686 9.49228 20.5763 5 15.0343 5C9.49228 5 5 9.49228 5 15.0343C5 20.5763 9.49228 25.0686 15.0343 25.0686C17.5197 25.0686 19.8045 24.1578 21.5643 22.6449L21.9811 23.0772V24.2967L29.6998 32L32 29.6998L24.2967 21.9811ZM15.0343 21.9811C11.1904 21.9811 8.08748 18.8782 8.08748 15.0343C8.08748 11.1904 11.1904 8.08748 15.0343 8.08748C18.8782 8.08748 21.9811 11.1904 21.9811 15.0343C21.9811 18.8782 18.8782 21.9811 15.0343 21.9811Z" fill="#010101"/>
</svg>
